<?xml version="1.0" encoding="UTF-8" standalone="no"?>
<svg
   width="48"
   height="48"
   viewBox="0 0 48.000002 48"
   version="1.1"
   id="svg13"
   sodipodi:docname="artist.svg"
   inkscape:export-filename="D:\j1\github\j1-theme\j1-template\packages\300_theme_src\assets\themes\j1\modules\amplitudejs\examples\flat-black\img\now-playing.png"
   inkscape:export-xdpi="96"
   inkscape:export-ydpi="96"
   inkscape:version="1.4 (86a8ad7, 2024-10-11)"
   xmlns:inkscape="http://www.inkscape.org/namespaces/inkscape"
   xmlns:sodipodi="http://sodipodi.sourceforge.net/DTD/sodipodi-0.dtd"
   xmlns="http://www.w3.org/2000/svg"
   xmlns:svg="http://www.w3.org/2000/svg"
   xmlns:rdf="http://www.w3.org/1999/02/22-rdf-syntax-ns#"
   xmlns:cc="http://creativecommons.org/ns#"
   xmlns:dc="http://purl.org/dc/elements/1.1/">
  <metadata
     id="metadata17">
    <rdf:RDF>
      <cc:Work
         rdf:about="">
        <dc:format>image/svg+xml</dc:format>
        <dc:type
           rdf:resource="http://purl.org/dc/dcmitype/StillImage" />
        <dc:title>Shape</dc:title>
      </cc:Work>
    </rdf:RDF>
  </metadata>
  <sodipodi:namedview
     pagecolor="#ffffff"
     bordercolor="#666666"
     borderopacity="1"
     objecttolerance="10"
     gridtolerance="10"
     guidetolerance="10"
     inkscape:pageopacity="0"
     inkscape:pageshadow="2"
     inkscape:window-width="1596"
     inkscape:window-height="1102"
     id="namedview15"
     showgrid="true"
     inkscape:zoom="14.754589"
     inkscape:cx="30.092333"
     inkscape:cy="24.263638"
     inkscape:window-x="528"
     inkscape:window-y="112"
     inkscape:window-maximized="0"
     inkscape:current-layer="svg13"
     inkscape:document-rotation="0"
     inkscape:pagecheckerboard="true"
     inkscape:showpageshadow="false"
     units="px"
     width="24mm"
     inkscape:deskcolor="#d1d1d1">
    <inkscape:grid
       type="xygrid"
       id="grid13"
       originx="0"
       originy="0"
       spacingy="1"
       spacingx="1"
       units="px" />
  </sodipodi:namedview>
  <!-- Generator: Sketch 46.2 (44496) - http://www.bohemiancoding.com/sketch -->
  <title
     id="title2">Shape</title>
  <desc
     id="desc4">Created with Sketch.</desc>
  <defs
     id="defs6" />
  <path
     d="m 39.221721,18.636638 h 8.843565 v 5.261699 h -5.053465 v 14.469666 q 0,2.762391 -1.831881,4.669757 -1.83188,1.907364 -4.48495,1.907364 -2.65307,0 -4.484953,-1.907364 -1.83188,-1.907366 -1.83188,-4.669757 0,-2.762391 1.83188,-4.669757 1.831883,-1.907363 4.484953,-1.907363 0.505346,0 1.137028,0.09866 0.631685,0.09866 1.389703,0.427515 z M 0.05736316,44.945124 v -7.366375 q 0,-2.301993 1.10544564,-4.143587 1.1054455,-1.841594 2.9373269,-2.828163 3.916436,-2.038906 7.9592093,-3.058361 4.042772,-1.019453 8.211882,-1.019453 2.653067,0 5.274553,0.427514 2.621486,0.427511 5.274555,1.282537 -1.263366,0.789254 -2.274059,1.907364 -1.010694,1.118113 -1.768713,2.433537 -1.642377,-0.394627 -3.25317,-0.591942 -1.610791,-0.197312 -3.253166,-0.197312 -3.600595,0 -7.074853,0.920795 -3.4742574,0.920798 -6.8221787,2.63085 -0.5685149,0.328855 -0.9159407,0.920795 -0.3474256,0.591943 -0.3474256,1.315426 v 2.104678 h 20.27703 q 0.126338,1.315424 0.600099,2.630849 0.473763,1.315425 1.294951,2.630848 z M 20.271227,23.898337 q -4.16911,0 -7.138022,-3.091246 -2.96891,-3.091248 -2.96891,-7.432148 0,-4.3409006 2.96891,-7.4321476 2.968912,-3.0912471 7.138022,-3.0912471 4.169107,0 7.138019,3.0912471 2.968911,3.091247 2.968911,7.4321476 0,4.3409 -2.968911,7.432148 -2.968912,3.091246 -7.138019,3.091246 z m 0,-5.261699 q 2.084554,0 3.569008,-1.545623 1.484456,-1.545622 1.484456,-3.716072 0,-2.170451 -1.484456,-3.7160739 -1.484454,-1.5456235 -3.569008,-1.5456235 -2.084556,0 -3.56901,1.5456235 -1.484456,1.5456229 -1.484456,3.7160739 0,2.17045 1.484456,3.716072 1.484454,1.545623 3.56901,1.545623 z m 0,-5.261695 z m 0,26.308484 z"
     id="path1-0"
     style="stroke-width:0.0644565;fill:#ffffff" />
</svg>
