<?xml version="1.0" encoding="UTF-8" standalone="no"?>
<svg
   width="48"
   height="48"
   viewBox="0 0 48.000002 48"
   version="1.1"
   id="svg13"
   sodipodi:docname="now-playing.svg"
   inkscape:export-filename="D:\j1\github\j1-theme\j1-template\packages\300_theme_src\assets\themes\j1\modules\amplitudejs\examples\flat-black\img\now-playing.png"
   inkscape:export-xdpi="96"
   inkscape:export-ydpi="96"
   inkscape:version="1.4 (86a8ad7, 2024-10-11)"
   xmlns:inkscape="http://www.inkscape.org/namespaces/inkscape"
   xmlns:sodipodi="http://sodipodi.sourceforge.net/DTD/sodipodi-0.dtd"
   xmlns="http://www.w3.org/2000/svg"
   xmlns:svg="http://www.w3.org/2000/svg"
   xmlns:rdf="http://www.w3.org/1999/02/22-rdf-syntax-ns#"
   xmlns:cc="http://creativecommons.org/ns#"
   xmlns:dc="http://purl.org/dc/elements/1.1/">
  <metadata
     id="metadata17">
    <rdf:RDF>
      <cc:Work
         rdf:about="">
        <dc:format>image/svg+xml</dc:format>
        <dc:type
           rdf:resource="http://purl.org/dc/dcmitype/StillImage" />
        <dc:title>Shape</dc:title>
      </cc:Work>
    </rdf:RDF>
  </metadata>
  <sodipodi:namedview
     pagecolor="#ffffff"
     bordercolor="#666666"
     borderopacity="1"
     objecttolerance="10"
     gridtolerance="10"
     guidetolerance="10"
     inkscape:pageopacity="0"
     inkscape:pageshadow="2"
     inkscape:window-width="1596"
     inkscape:window-height="1102"
     id="namedview15"
     showgrid="true"
     inkscape:zoom="14.754589"
     inkscape:cx="30.092333"
     inkscape:cy="24.263638"
     inkscape:window-x="528"
     inkscape:window-y="112"
     inkscape:window-maximized="0"
     inkscape:current-layer="svg13"
     inkscape:document-rotation="0"
     inkscape:pagecheckerboard="true"
     inkscape:showpageshadow="false"
     units="px"
     width="24mm"
     inkscape:deskcolor="#d1d1d1">
    <inkscape:grid
       type="xygrid"
       id="grid13"
       originx="0"
       originy="0"
       spacingy="1"
       spacingx="1"
       units="px" />
  </sodipodi:namedview>
  <!-- Generator: Sketch 46.2 (44496) - http://www.bohemiancoding.com/sketch -->
  <title
     id="title2">Shape</title>
  <desc
     id="desc4">Created with Sketch.</desc>
  <defs
     id="defs6" />
  <path
     d="m 29.16849,47.019024 v -5.384557 q 5.774326,-1.691071 9.303083,-6.540388 3.528755,-4.849318 3.528755,-11.021857 0,-6.172539 -3.528755,-11.041688 Q 34.942816,8.1613833 29.16849,6.4378589 V 1.0533033 q 7.955739,1.8609848 12.960157,8.2774154 5.004417,6.4164323 5.004417,14.7559283 0,8.339493 -5.004417,14.727798 -5.004418,6.388306 -12.960157,8.204579 z M 0.9384454,31.902339 V 16.142664 L 11.203915,16.17151 24.035754,3.0745048 V 45.100306 L 11.203915,31.931186 Z m 28.2300446,2.70594 v -21.14423 q 3.015482,1.453111 4.715699,4.347163 1.700219,2.894051 1.700219,6.308647 0,3.34893 -1.700219,6.200594 -1.700217,2.851663 -4.715699,4.287826 z m -10.265471,-18.809125 -5.51769,5.631711 -7.3141483,-0.02055 v 5.253226 l 7.3141483,0.02055 5.51769,5.662721 z m -6.41592,8.2558 z"
     id="path1"
     style="fill:#ffffff;stroke-width:0.0649078" />
</svg>
