<?xml version="1.0" encoding="UTF-8" standalone="no"?>
<svg
   width="24px"
   height="24px"
   viewBox="0 0 24 24"
   version="1.1"
   id="svg13"
   sodipodi:docname="skip-backward.svg"
   inkscape:version="1.4 (86a8ad7, 2024-10-11)"
   xmlns:inkscape="http://www.inkscape.org/namespaces/inkscape"
   xmlns:sodipodi="http://sodipodi.sourceforge.net/DTD/sodipodi-0.dtd"
   xmlns="http://www.w3.org/2000/svg"
   xmlns:svg="http://www.w3.org/2000/svg"
   xmlns:rdf="http://www.w3.org/1999/02/22-rdf-syntax-ns#"
   xmlns:cc="http://creativecommons.org/ns#"
   xmlns:dc="http://purl.org/dc/elements/1.1/">
  <metadata
     id="metadata17">
    <rdf:RDF>
      <cc:Work
         rdf:about="">
        <dc:format>image/svg+xml</dc:format>
        <dc:type
           rdf:resource="http://purl.org/dc/dcmitype/StillImage" />
        <dc:title>Shape</dc:title>
      </cc:Work>
    </rdf:RDF>
  </metadata>
  <sodipodi:namedview
     pagecolor="#ffffff"
     bordercolor="#666666"
     borderopacity="1"
     objecttolerance="10"
     gridtolerance="10"
     guidetolerance="10"
     inkscape:pageopacity="0"
     inkscape:pageshadow="2"
     inkscape:window-width="1860"
     inkscape:window-height="1231"
     id="namedview15"
     showgrid="false"
     inkscape:pagecheckerboard="true"
     inkscape:showpageshadow="false"
     inkscape:zoom="30.625"
     inkscape:cx="14.334694"
     inkscape:cy="12"
     inkscape:window-x="262"
     inkscape:window-y="20"
     inkscape:window-maximized="0"
     inkscape:current-layer="svg13"
     inkscape:deskcolor="#d1d1d1" />
  <!-- Generator: Sketch 46.2 (44496) - http://www.bohemiancoding.com/sketch -->
  <title
     id="title2">Shape</title>
  <desc
     id="desc4">Created with Sketch.</desc>
  <defs
     id="defs6" />
  <path
     d="m 12.000001,23.134694 q 4.607959,0 7.80602,-3.217041 3.198061,-3.21704 3.198061,-7.852347 0,-4.6353062 -3.198061,-7.852347 -3.198061,-3.21704075 -7.80602,-3.21704075 -2.3727555,0 -4.5391845,0.98586735 -2.166428,0.9858673 -3.713878,2.8192347 V 0.99591825 H 0.99591847 V 10.681633 H 10.62449 V 7.9142856 H 4.8473475 q 1.100408,-1.9371429 3.008928,-3.0440817 1.90852,-1.1069388 4.1437255,-1.1069388 3.438775,0 5.845918,2.4214286 2.407143,2.4214286 2.407143,5.8806123 0,3.459184 -2.407143,5.880612 -2.407143,2.421429 -5.845918,2.421429 -2.6478575,0 -4.7798985,-1.522041 -2.132041,-1.522041 -2.991735,-4.012653 h -2.888572 q 0.962857,3.666734 3.920205,5.984388 2.957347,2.317653 6.7400005,2.317653 z"
     id="path1"
     style="fill:#ffffff;stroke-width:0.0344897" />
</svg>
