<?xml version="1.0" encoding="UTF-8" standalone="no"?>
<svg
   viewBox="0 0 25 18"
   version="1.1"
   id="svg4"
   sodipodi:docname="volume.svg"
   inkscape:version="1.4 (86a8ad7, 2024-10-11)"
   width="25"
   height="18"
   xmlns:inkscape="http://www.inkscape.org/namespaces/inkscape"
   xmlns:sodipodi="http://sodipodi.sourceforge.net/DTD/sodipodi-0.dtd"
   xmlns="http://www.w3.org/2000/svg"
   xmlns:svg="http://www.w3.org/2000/svg"
   xmlns:rdf="http://www.w3.org/1999/02/22-rdf-syntax-ns#"
   xmlns:cc="http://creativecommons.org/ns#"
   xmlns:dc="http://purl.org/dc/elements/1.1/">
  <metadata
     id="metadata10">
    <rdf:RDF>
      <cc:Work
         rdf:about="">
        <dc:format>image/svg+xml</dc:format>
        <dc:type
           rdf:resource="http://purl.org/dc/dcmitype/StillImage" />
      </cc:Work>
    </rdf:RDF>
  </metadata>
  <defs
     id="defs8" />
  <sodipodi:namedview
     pagecolor="#ffffff"
     bordercolor="#666666"
     borderopacity="1"
     objecttolerance="10"
     gridtolerance="10"
     guidetolerance="10"
     inkscape:pageopacity="0"
     inkscape:pageshadow="2"
     inkscape:window-width="3440"
     inkscape:window-height="1369"
     id="namedview6"
     showgrid="true"
     inkscape:zoom="30.625"
     inkscape:cx="12.04898"
     inkscape:cy="12"
     inkscape:window-x="-8"
     inkscape:window-y="-8"
     inkscape:window-maximized="1"
     inkscape:current-layer="svg4"
     inkscape:document-rotation="0"
     inkscape:showpageshadow="false"
     inkscape:pagecheckerboard="true"
     inkscape:deskcolor="#d1d1d1">
    <inkscape:grid
       id="grid1"
       units="px"
       originx="0"
       originy="0"
       spacingx="1"
       spacingy="1"
       empcolor="#0099e5"
       empopacity="0.30196078"
       color="#0099e5"
       opacity="0.14901961"
       empspacing="5"
       enabled="true"
       visible="true" />
  </sodipodi:namedview>
  <path
     d="m 11.442177,17.038776 v -1.885522 q 2.127551,-0.597848 3.427721,-2.299416 1.300171,-1.701569 1.300171,-3.8630217 0,-2.1614519 -1.300171,-3.8630205 Q 13.569728,3.4262274 11.442177,2.828379 V 0.94285714 q 2.931293,0.64383676 4.77517,2.88576826 1.843878,2.2419313 1.843878,5.1621909 0,2.9202607 -1.843878,5.1621917 -1.843877,2.241931 -4.77517,2.885768 z M 1.0408163,11.773111 V 6.2545103 h 3.782313 L 9.5510208,1.6556764 V 16.371945 L 4.8231293,11.773111 Z M 11.442177,12.692879 V 5.288755 q 1.111055,0.5058718 1.737501,1.5176152 0.626445,1.0117435 0.626445,2.2074405 0,1.1727033 -0.626445,2.1729493 -0.626446,1.000247 -1.737501,1.506119 z M 7.6598643,6.1165451 5.626871,8.0940436 H 2.9319728 V 9.9335775 H 5.626871 L 7.6598643,11.911077 Z M 5.2959187,9.0138107 Z"
     id="path1"
     style="fill:#ffffff;stroke-width:0.0233146" />
</svg>
