<?xml version="1.0" encoding="UTF-8" standalone="no"?>
<svg
   xmlns:dc="http://purl.org/dc/elements/1.1/"
   xmlns:cc="http://creativecommons.org/ns#"
   xmlns:rdf="http://www.w3.org/1999/02/22-rdf-syntax-ns#"
   xmlns:svg="http://www.w3.org/2000/svg"
   xmlns="http://www.w3.org/2000/svg"
   xmlns:sodipodi="http://sodipodi.sourceforge.net/DTD/sodipodi-0.dtd"
   xmlns:inkscape="http://www.inkscape.org/namespaces/inkscape"
   width="512"
   height="512"
   viewBox="0 0 512 512"
   version="1.1"
   id="svg6"
   sodipodi:docname="dailymotion.svg"
   inkscape:version="1.0.1 (3bc2e813f5, 2020-09-07)">
  <metadata
     id="metadata12">
    <rdf:RDF>
      <cc:Work
         rdf:about="">
        <dc:format>image/svg+xml</dc:format>
        <dc:type
           rdf:resource="http://purl.org/dc/dcmitype/StillImage" />
        <dc:title></dc:title>
      </cc:Work>
    </rdf:RDF>
  </metadata>
  <defs
     id="defs10" />
  <sodipodi:namedview
     pagecolor="#ffffff"
     bordercolor="#666666"
     borderopacity="1"
     objecttolerance="10"
     gridtolerance="10"
     guidetolerance="10"
     inkscape:pageopacity="0"
     inkscape:pageshadow="2"
     inkscape:window-width="1961"
     inkscape:window-height="1181"
     id="namedview8"
     showgrid="false"
     inkscape:pagecheckerboard="true"
     inkscape:showpageshadow="false"
     inkscape:zoom="1.8339844"
     inkscape:cx="256"
     inkscape:cy="168.75825"
     inkscape:window-x="0"
     inkscape:window-y="0"
     inkscape:window-maximized="0"
     inkscape:current-layer="svg6" />
  <path
     fill="currentColor"
     d="m 14.068,11.313 h -0.023 a 3.1,3.1 0 1 0 0.183,6.195 H 14.204 A 2.97,2.97 0 0 0 17.13,14.54 l -10e-4,-0.076 v 0.004 l 0.002,-0.103 a 3.054,3.054 0 0 0 -3.054,-3.054 h -0.01 10e-4 z"
     id="path2" />
  <path
     fill="currentColor"
     d="M 0,0 V 512.00852 H 513.09904 V 0 Z m 442.39827,443.89005 h -76.45176 v -30.0165 a 103.47497,103.25505 0 0 1 -79.68,31.36053 h 0.23517 l -2.22343,0.0213 a 120.79207,120.53534 0 0 1 -81.88206,-31.7872 l 0.0855,0.0853 A 135.97125,135.68226 0 0 1 155.42625,310.83184 l 0.0214,-2.70938 v -0.64001 a 135.54366,135.25558 0 0 1 42.90791,-98.88165 l 0.0641,-0.064 a 124.42652,124.16207 0 0 1 88.65923,-36.90728 h 0.87655 -0.0428 a 89.578541,89.388154 0 0 1 75.3828,33.66456 l 0.14965,0.19201 V 88.684142 l 78.95312,-16.320271 z"
     id="path4"
     style="stroke-width:21.3564" />
</svg>
